<svg xmlns="http://www.w3.org/2000/svg" width="805" height="600"><rect width="805" height="600" x="0" y="0" fill="#FFFFFF" id="background"/><g transform="translate(10,10)" id="viz"><g><rect x="78" y="331.20713358530656" height="36.97543846488628" width="5" fill="black"><title>information: 20</title></rect><rect x="156" y="435.160289243983" height="44.37052615786348" width="5" fill="black"><title>visualization: 24</title></rect><rect x="546" y="155.55151673556736" height="16.63894730919884" width="5" fill="black"><title>abstract: 9</title></rect><rect x="624" y="126.307787193971" height="24.034035002176097" width="5" fill="black"><title>datum: 13</title></rect><rect x="390" y="123.15459907705574" height="9.243859616221556" width="5" fill="black"><title>visual: 5</title></rect><rect x="468" y="97.30711288801079" height="12.941403462710184" width="5" fill="black"><title>representation: 7</title></rect><rect x="312" y="150.4943559418277" height="7.395087692977228" width="5" fill="black"><title>interactive: 4</title></rect><rect x="234" y="252.92447014017182" height="5.546315769732928" width="5" fill="black"><title>use: 3</title></rect><rect x="234" y="361.0416009359165" height="9.243859616221584" width="5" fill="black"><title>computer: 5</title></rect><rect x="312" y="361.13666896261446" height="5.546315769732871" width="5" fill="black"><title>graphic: 3</title></rect><rect x="234" y="398.27947814079675" height="3.6975438464886565" width="5" fill="black"><title>infovis: 2</title></rect><rect x="702" y="135.23736122418762" height="3.697543846488628" width="5" fill="black"><title>reinforce: 2</title></rect><rect x="0" y="228.95490542535254" height="3.697543846488543" width="5" fill="black"><title>human: 2</title></rect><rect x="780" y="227.51121643069246" height="7.395087692977228" width="5" fill="black"><title>cognition: 4</title></rect><rect x="0" y="5.369506527821755e-8" height="3.6975438464886143" width="5" fill="black"><title>enable: 2</title></rect><rect x="78" y="0" height="3.6975438464886308" width="5" fill="black"><title>user: 2</title></rect><rect x="702" y="182.29867489413243" height="3.697543846488628" width="5" fill="black"><title>amplify: 2</title></rect><rect x="0" y="316.84329137992796" height="7.395087692977256" width="5" fill="black"><title>map: 4</title></rect><rect x="78" y="239.62120378424243" height="7.395087692977228" width="5" fill="black"><title>data: 4</title></rect><rect x="0" y="364.48502820370436" height="3.6975438464885997" width="5" fill="black"><title>structure: 2</title></rect><rect x="0" y="97.1223264934892" height="3.6975438464886423" width="5" fill="black"><title>geographic: 2</title></rect><rect x="234" y="454.4763026602251" height="3.6975438464885997" width="5" fill="black"><title>technique: 2</title></rect><rect x="0" y="452.3734141582799" height="3.6975438464885997" width="5" fill="black"><title>contrast: 2</title></rect><rect x="78" y="452.3734141582798" height="3.6975438464885997" width="5" fill="black"><title>scientific: 2</title></rect><rect x="312" y="406.92963386314653" height="3.697543846488543" width="5" fill="black"><title>science: 2</title></rect><rect x="0" y="53.17813351620143" height="3.697543846488614" width="5" fill="black"><title>sensory: 2</title></rect><rect x="0" y="185.01071244806477" height="3.697543846488628" width="5" fill="black"><title>represent: 2</title></rect><rect x="0" y="408.4292211809921" height="3.6975438464885997" width="5" fill="black"><title>take: 2</title></rect><rect x="78" y="408.429221180992" height="3.6975438464885997" width="5" fill="black"><title>advantage: 2</title></rect><rect x="78" y="287.2629406080188" height="3.6975438464885997" width="5" fill="black"><title>screen: 2</title></rect><rect x="156" y="391.2160962666953" height="3.6975438464885997" width="5" fill="black"><title>space: 2</title></rect><rect x="0" y="141.066519470777" height="3.697543846488628" width="5" fill="black"><title>kind: 2</title></rect><rect x="234" y="498.42049563751283" height="3.697543846488543" width="5" fill="black"><title>coordinate: 2</title></rect><rect x="0" y="272.8990984026402" height="3.6975438464885997" width="5" fill="black"><title>unstructured: 2</title></rect><rect x="0" y="496.31760713556764" height="3.6975438464886565" width="5" fill="black"><title>criterion: 2</title></rect><rect x="78" y="496.3176071355675" height="3.6975438464886565" width="5" fill="black"><title>record: 2</title></rect><rect x="0" y="540.2618001128554" height="3.697543846488543" width="5" fill="black"><title>spatial: 2</title></rect><rect x="78" y="540.2618001128553" height="3.6975438464886565" width="5" fill="black"><title>temporal: 2</title></rect></g><g class="links" fill="none" stroke-opacity="1"><path d="M83,349.69485281774973C119.5,349.69485281774973,119.5,453.6480084764262,156,453.6480084764262" stroke="#fecb7b" style="stroke-width: 36.975438; mix-blend-mode: multiply;"><title>information → visualization: 20</title></path><path d="M551,163.87099039016675C587.5,163.87099039016675,587.5,142.02234854154761,624,142.02234854154761" stroke="#9a7081" style="stroke-width: 16.638947; mix-blend-mode: multiply;"><title>abstract → datum: 9</title></path><path d="M395,127.77652888516653C431.5,127.77652888516653,431.5,105.62658654261018,468,105.62658654261018" stroke="#4d66ac" style="stroke-width: 9.24386; mix-blend-mode: multiply;"><title>visual → representation: 5</title></path><path d="M317,154.1918997883163C353.5,154.1918997883163,353.5,126.85214292354435,390,126.85214292354435" stroke="#fedd8d" style="stroke-width: 7.395088; mix-blend-mode: multiply;"><title>interactive → visual: 4</title></path><path d="M239,255.69762802503826C275.5,255.69762802503826,275.5,153.26751382669414,312,153.26751382669414" stroke="#437db3" style="stroke-width: 5.546316; mix-blend-mode: multiply;"><title>use → interactive: 3</title></path><path d="M239,363.81475882078297C275.5,363.81475882078297,275.5,363.90982684748093,312,363.90982684748093" stroke="#c8314a" style="stroke-width: 5.546316; mix-blend-mode: multiply;"><title>computer → graphic: 3</title></path><path d="M161,444.4041488602046C197.5,444.4041488602046,197.5,400.12825006404114,234,400.12825006404114" stroke="#5e4fa2" style="stroke-width: 3.697544; mix-blend-mode: multiply;"><title>visualization → infovis: 2</title></path><path d="M473,99.15588481125509C509.5,99.15588481125509,509.5,157.4002886588117,546,157.4002886588117" stroke="#eef8a8" style="stroke-width: 3.697544; mix-blend-mode: multiply;"><title>representation → abstract: 2</title></path><path d="M629,128.1565591172153C665.5,128.1565591172153,665.5,137.08613314743192,702,137.08613314743192" stroke="#f0704a" style="stroke-width: 3.697544; mix-blend-mode: multiply;"><title>datum → reinforce: 2</title></path><path d="M5,230.80367734859686C392.5,230.80367734859686,392.5,233.0575322004254,780,233.0575322004254" stroke="#fdb76a" style="stroke-width: 3.697544; mix-blend-mode: multiply;"><title>human → cognition: 2</title></path><path d="M5,1.8487719769393725C41.5,1.8487719769393725,41.5,1.8487719232443072,78,1.8487719232443072" stroke="#f78751" style="stroke-width: 3.697544; mix-blend-mode: multiply;"><title>enable → user: 2</title></path><path d="M629,131.85410296370392C665.5,131.85410296370392,665.5,184.1474468173767,702,184.1474468173767" stroke="#f0704a" style="stroke-width: 3.697544; mix-blend-mode: multiply;"><title>datum → amplify: 2</title></path><path d="M707,184.1474468173767C743.5,184.1474468173767,743.5,229.3599883539368,780,229.3599883539368" stroke="#b41947" style="stroke-width: 3.697544; mix-blend-mode: multiply;"><title>amplify → cognition: 2</title></path><path d="M5,318.69206330317235C41.5,318.69206330317235,41.5,245.16751955397538,78,245.16751955397538" stroke="#fdf5ad" style="stroke-width: 3.697544; mix-blend-mode: multiply;"><title>map → data: 2</title></path><path d="M5,366.3338001269487C41.5,366.3338001269487,41.5,333.0559055085509,78,333.0559055085509" stroke="#69bda9" style="stroke-width: 3.697544; mix-blend-mode: multiply;"><title>structure → information: 2</title></path><path d="M5,98.9710984167335C314.5,98.9710984167335,314.5,128.1565591172153,624,128.1565591172153" stroke="#faa05c" style="stroke-width: 3.697544; mix-blend-mode: multiply;"><title>geographic → datum: 2</title></path><path d="M161,451.79923655318186C197.5,451.79923655318186,197.5,456.3250745834694,234,456.3250745834694" stroke="#5e4fa2" style="stroke-width: 3.697544; mix-blend-mode: multiply;"><title>visualization → technique: 2</title></path><path d="M5,454.2221860815242C41.5,454.2221860815242,41.5,454.2221860815241,78,454.2221860815241" stroke="#d9464b" style="stroke-width: 3.697544; mix-blend-mode: multiply;"><title>contrast → scientific: 2</title></path><path d="M83,454.2221860815241C119.5,454.2221860815241,119.5,473.9844996321137,156,473.9844996321137" stroke="#e0f3a1" style="stroke-width: 3.697544; mix-blend-mode: multiply;"><title>scientific → visualization: 2</title></path><path d="M239,368.4366886288938C275.5,368.4366886288938,275.5,408.77840578639086,312,408.77840578639086" stroke="#c8314a" style="stroke-width: 3.697544; mix-blend-mode: multiply;"><title>computer → science: 2</title></path><path d="M161,437.0090611672274C197.5,437.0090611672274,197.5,254.77324206341618,234,254.77324206341618" stroke="#5e4fa2" style="stroke-width: 3.697544; mix-blend-mode: multiply;"><title>visualization → use: 2</title></path><path d="M5,55.026905439445734C236.5,55.026905439445734,236.5,99.15588481125509,468,99.15588481125509" stroke="#b6e2a1" style="stroke-width: 3.697544; mix-blend-mode: multiply;"><title>sensory → representation: 2</title></path><path d="M161,440.706605013716C197.5,440.706605013716,197.5,362.89037285916083,234,362.89037285916083" stroke="#5e4fa2" style="stroke-width: 3.697544; mix-blend-mode: multiply;"><title>visualization → computer: 2</title></path><path d="M5,186.85948437130904C275.5,186.85948437130904,275.5,161.09783250530032,546,161.09783250530032" stroke="#f8f9b0" style="stroke-width: 3.697544; mix-blend-mode: multiply;"><title>represent → abstract: 2</title></path><path d="M5,410.2779931042365C41.5,410.2779931042365,41.5,410.2779931042363,78,410.2779931042363" stroke="#53aaaf" style="stroke-width: 3.697544; mix-blend-mode: multiply;"><title>take → advantage: 2</title></path><path d="M161 477.6820434786022 L166 477.6820434786022 A11.848771923244312 11.848771923244312 0 0 1 177.8487719232443 489.53081540184655 L177.8487719232443 494.5308154018465 A11.848771923244312 11.848771923244312 0 0 1 166 506.3795873250908 L151 506.3795873250908 A11.848771923244312 11.848771923244312 0 0 1 139.1512280767557 494.5308154018465 L139.1512280767557 489.53081540184655 A11.848771923244312 11.848771923244312 0 0 1 151 477.6820434786022 L156 477.6820434786022" stroke="#5e4fa2" style="stroke-width: 3.697544; mix-blend-mode: multiply;"><title>visualization → visualization: 2</title></path><path d="M5,322.38960714966095C41.5,322.38960714966095,41.5,289.11171253126315,78,289.11171253126315" stroke="#fdf5ad" style="stroke-width: 3.697544; mix-blend-mode: multiply;"><title>map → screen: 2</title></path><path d="M83,289.11171253126315C119.5,289.11171253126315,119.5,393.0648681899396,156,393.0648681899396" stroke="#cdeb9f" style="stroke-width: 3.697544; mix-blend-mode: multiply;"><title>screen → space: 2</title></path><path d="M161,448.1016927066932C353.5,448.1016927066932,353.5,164.79537635178892,546,164.79537635178892" stroke="#5e4fa2" style="stroke-width: 3.697544; mix-blend-mode: multiply;"><title>visualization → abstract: 2</title></path><path d="M5,142.9152913940213C314.5,142.9152913940213,314.5,131.85410296370392,624,131.85410296370392" stroke="#feeb9f" style="stroke-width: 3.697544; mix-blend-mode: multiply;"><title>kind → datum: 2</title></path><path d="M161,393.0648681899396C197.5,393.0648681899396,197.5,500.26926756075716,234,500.26926756075716" stroke="#9cd7a3" style="stroke-width: 3.697544; mix-blend-mode: multiply;"><title>space → coordinate: 2</title></path><path d="M5,274.74787032588455C41.5,274.74787032588455,41.5,241.46997570748678,78,241.46997570748678" stroke="#4594b4" style="stroke-width: 3.697544; mix-blend-mode: multiply;"><title>unstructured → data: 2</title></path><path d="M5,498.16637905881197C41.5,498.16637905881197,41.5,498.16637905881186,78,498.16637905881186" stroke="#e75b49" style="stroke-width: 3.697544; mix-blend-mode: multiply;"><title>criterion → record: 2</title></path><path d="M5,542.1105720360998C41.5,542.1105720360998,41.5,542.1105720360997,78,542.1105720360997" stroke="#82cca5" style="stroke-width: 3.697544; mix-blend-mode: multiply;"><title>spatial → temporal: 2</title></path></g><g><text x="87" y="349.69485281774973" text-anchor="start"><tspan alignment-baseline="middle" style="font-family: Arial, sans-serif; font-size: 10px; fill: black; font-weight: bold;">information</tspan></text><text x="165" y="457.3455523229147" text-anchor="start"><tspan alignment-baseline="middle" style="font-family: Arial, sans-serif; font-size: 10px; fill: black; font-weight: bold;">visualization</tspan></text><text x="542" y="163.87099039016678" text-anchor="end"><tspan alignment-baseline="middle" style="font-family: Arial, sans-serif; font-size: 10px; fill: black; font-weight: bold;">abstract</tspan></text><text x="620" y="138.32480469505904" text-anchor="end"><tspan alignment-baseline="middle" style="font-family: Arial, sans-serif; font-size: 10px; fill: black; font-weight: bold;">datum</tspan></text><text x="399" y="127.77652888516651" text-anchor="start"><tspan alignment-baseline="middle" style="font-family: Arial, sans-serif; font-size: 10px; fill: black; font-weight: bold;">visual</tspan></text><text x="464" y="103.77781461936588" text-anchor="end"><tspan alignment-baseline="middle" style="font-family: Arial, sans-serif; font-size: 10px; fill: black; font-weight: bold;">representation</tspan></text><text x="321" y="154.19189978831633" text-anchor="start"><tspan alignment-baseline="middle" style="font-family: Arial, sans-serif; font-size: 10px; fill: black; font-weight: bold;">interactive</tspan></text><text x="243" y="255.69762802503828" text-anchor="start"><tspan alignment-baseline="middle" style="font-family: Arial, sans-serif; font-size: 10px; fill: black; font-weight: bold;">use</tspan></text><text x="243" y="365.6635307440273" text-anchor="start"><tspan alignment-baseline="middle" style="font-family: Arial, sans-serif; font-size: 10px; fill: black; font-weight: bold;">computer</tspan></text><text x="321" y="363.9098268474809" text-anchor="start"><tspan alignment-baseline="middle" style="font-family: Arial, sans-serif; font-size: 10px; fill: black; font-weight: bold;">graphic</tspan></text><text x="243" y="400.1282500640411" text-anchor="start"><tspan alignment-baseline="middle" style="font-family: Arial, sans-serif; font-size: 10px; fill: black; font-weight: bold;">infovis</tspan></text><text x="698" y="137.08613314743195" text-anchor="end"><tspan alignment-baseline="middle" style="font-family: Arial, sans-serif; font-size: 10px; fill: black; font-weight: bold;">reinforce</tspan></text><text x="9" y="230.8036773485968" text-anchor="start"><tspan alignment-baseline="middle" style="font-family: Arial, sans-serif; font-size: 10px; fill: black; font-weight: bold;">human</tspan></text><text x="776" y="231.20876027718106" text-anchor="end"><tspan alignment-baseline="middle" style="font-family: Arial, sans-serif; font-size: 10px; fill: black; font-weight: bold;">cognition</tspan></text><text x="9" y="1.8487719769393725" text-anchor="start"><tspan alignment-baseline="middle" style="font-family: Arial, sans-serif; font-size: 10px; fill: black; font-weight: bold;">enable</tspan></text><text x="87" y="1.8487719232443154" text-anchor="start"><tspan alignment-baseline="middle" style="font-family: Arial, sans-serif; font-size: 10px; fill: black; font-weight: bold;">user</tspan></text><text x="698" y="184.14744681737676" text-anchor="end"><tspan alignment-baseline="middle" style="font-family: Arial, sans-serif; font-size: 10px; fill: black; font-weight: bold;">amplify</tspan></text><text x="9" y="320.54083522641656" text-anchor="start"><tspan alignment-baseline="middle" style="font-family: Arial, sans-serif; font-size: 10px; fill: black; font-weight: bold;">map</tspan></text><text x="87" y="243.31874763073102" text-anchor="start"><tspan alignment-baseline="middle" style="font-family: Arial, sans-serif; font-size: 10px; fill: black; font-weight: bold;">data</tspan></text><text x="9" y="366.33380012694863" text-anchor="start"><tspan alignment-baseline="middle" style="font-family: Arial, sans-serif; font-size: 10px; fill: black; font-weight: bold;">structure</tspan></text><text x="9" y="98.97109841673353" text-anchor="start"><tspan alignment-baseline="middle" style="font-family: Arial, sans-serif; font-size: 10px; fill: black; font-weight: bold;">geographic</tspan></text><text x="243" y="456.32507458346936" text-anchor="start"><tspan alignment-baseline="middle" style="font-family: Arial, sans-serif; font-size: 10px; fill: black; font-weight: bold;">technique</tspan></text><text x="9" y="454.2221860815242" text-anchor="start"><tspan alignment-baseline="middle" style="font-family: Arial, sans-serif; font-size: 10px; fill: black; font-weight: bold;">contrast</tspan></text><text x="87" y="454.2221860815241" text-anchor="start"><tspan alignment-baseline="middle" style="font-family: Arial, sans-serif; font-size: 10px; fill: black; font-weight: bold;">scientific</tspan></text><text x="321" y="408.7784057863908" text-anchor="start"><tspan alignment-baseline="middle" style="font-family: Arial, sans-serif; font-size: 10px; fill: black; font-weight: bold;">science</tspan></text><text x="9" y="55.026905439445734" text-anchor="start"><tspan alignment-baseline="middle" style="font-family: Arial, sans-serif; font-size: 10px; fill: black; font-weight: bold;">sensory</tspan></text><text x="9" y="186.85948437130907" text-anchor="start"><tspan alignment-baseline="middle" style="font-family: Arial, sans-serif; font-size: 10px; fill: black; font-weight: bold;">represent</tspan></text><text x="9" y="410.27799310423643" text-anchor="start"><tspan alignment-baseline="middle" style="font-family: Arial, sans-serif; font-size: 10px; fill: black; font-weight: bold;">take</tspan></text><text x="87" y="410.2779931042363" text-anchor="start"><tspan alignment-baseline="middle" style="font-family: Arial, sans-serif; font-size: 10px; fill: black; font-weight: bold;">advantage</tspan></text><text x="87" y="289.11171253126315" text-anchor="start"><tspan alignment-baseline="middle" style="font-family: Arial, sans-serif; font-size: 10px; fill: black; font-weight: bold;">screen</tspan></text><text x="165" y="393.0648681899396" text-anchor="start"><tspan alignment-baseline="middle" style="font-family: Arial, sans-serif; font-size: 10px; fill: black; font-weight: bold;">space</tspan></text><text x="9" y="142.91529139402132" text-anchor="start"><tspan alignment-baseline="middle" style="font-family: Arial, sans-serif; font-size: 10px; fill: black; font-weight: bold;">kind</tspan></text><text x="243" y="500.2692675607571" text-anchor="start"><tspan alignment-baseline="middle" style="font-family: Arial, sans-serif; font-size: 10px; fill: black; font-weight: bold;">coordinate</tspan></text><text x="9" y="274.7478703258845" text-anchor="start"><tspan alignment-baseline="middle" style="font-family: Arial, sans-serif; font-size: 10px; fill: black; font-weight: bold;">unstructured</tspan></text><text x="9" y="498.16637905881197" text-anchor="start"><tspan alignment-baseline="middle" style="font-family: Arial, sans-serif; font-size: 10px; fill: black; font-weight: bold;">criterion</tspan></text><text x="87" y="498.16637905881186" text-anchor="start"><tspan alignment-baseline="middle" style="font-family: Arial, sans-serif; font-size: 10px; fill: black; font-weight: bold;">record</tspan></text><text x="9" y="542.1105720360997" text-anchor="start"><tspan alignment-baseline="middle" style="font-family: Arial, sans-serif; font-size: 10px; fill: black; font-weight: bold;">spatial</tspan></text><text x="87" y="542.1105720360997" text-anchor="start"><tspan alignment-baseline="middle" style="font-family: Arial, sans-serif; font-size: 10px; fill: black; font-weight: bold;">temporal</tspan></text></g></g></svg>