<svg xmlns="http://www.w3.org/2000/svg" width="1000" height="700"><rect width="1000" height="700" x="0" y="0" fill="#FFFFFF" id="background"/><g id="viz"><g transform="translate(0,0)"><g transform="translate(100,20)"><g class="bars"><rect id="undefined - Taylor Swift" x="0" y="19.41176470588232" height="38.82352941176472" width="831.123076923077" fill="#ffb0ac"/><rect id="undefined - Jack Antonoff" x="0" y="77.64705882352939" height="38.82352941176472" width="151.98461538461538" fill="#ffb0ac"/><rect id="undefined - Aaron Dessner" x="0" y="135.88235294117646" height="38.82352941176472" width="117.75384615384617" fill="#ffb0ac"/><rect id="undefined - Max Martin" x="0" y="194.1176470588235" height="38.82352941176472" width="113.64615384615384" fill="#ffb0ac"/><rect id="undefined - Shellback" x="0" y="252.35294117647058" height="38.82352941176472" width="108.16923076923077" fill="#ffb0ac"/><rect id="undefined - Liz Rose" x="0" y="310.5882352941176" height="38.82352941176472" width="38.33846153846154" fill="#ffb0ac"/><rect id="undefined - William Bowery" x="0" y="368.8235294117647" height="38.82352941176472" width="23.276923076923076" fill="#ffb0ac"/><rect id="undefined - Joel Little" x="0" y="427.05882352941177" height="38.82352941176472" width="13.692307692307693" fill="#ffb0ac"/><rect id="undefined - Ryan Tedder" x="0" y="485.29411764705884" height="38.82352941176472" width="13.692307692307693" fill="#ffb0ac"/><rect id="undefined - Dan Wilson" x="0" y="543.5294117647059" height="38.82352941176472" width="12.323076923076924" fill="#ffb0ac"/><rect id="undefined - Ed Sheeran" x="0" y="601.7647058823529" height="38.82352941176472" width="9.584615384615384" fill="#ffb0ac"/></g><g id="xAxis" transform="translate(0,660)" fill="none" font-size="10" font-family="sans-serif" text-anchor="middle"><path class="domain" stroke="currentColor" d="M0,6V0H890V6"/><g class="tick" opacity="1" transform="translate(0,0)"><line stroke="currentColor" y2="6"/><text fill="currentColor" y="9" dy="0.71em">0</text></g><g class="tick" opacity="1" transform="translate(68.46153846153847,0)"><line stroke="currentColor" y2="6"/><text fill="currentColor" y="9" dy="0.71em">50</text></g><g class="tick" opacity="1" transform="translate(136.92307692307693,0)"><line stroke="currentColor" y2="6"/><text fill="currentColor" y="9" dy="0.71em">100</text></g><g class="tick" opacity="1" transform="translate(205.3846153846154,0)"><line stroke="currentColor" y2="6"/><text fill="currentColor" y="9" dy="0.71em">150</text></g><g class="tick" opacity="1" transform="translate(273.84615384615387,0)"><line stroke="currentColor" y2="6"/><text fill="currentColor" y="9" dy="0.71em">200</text></g><g class="tick" opacity="1" transform="translate(342.3076923076923,0)"><line stroke="currentColor" y2="6"/><text fill="currentColor" y="9" dy="0.71em">250</text></g><g class="tick" opacity="1" transform="translate(410.7692307692308,0)"><line stroke="currentColor" y2="6"/><text fill="currentColor" y="9" dy="0.71em">300</text></g><g class="tick" opacity="1" transform="translate(479.2307692307692,0)"><line stroke="currentColor" y2="6"/><text fill="currentColor" y="9" dy="0.71em">350</text></g><g class="tick" opacity="1" transform="translate(547.6923076923077,0)"><line stroke="currentColor" y2="6"/><text fill="currentColor" y="9" dy="0.71em">400</text></g><g class="tick" opacity="1" transform="translate(616.1538461538462,0)"><line stroke="currentColor" y2="6"/><text fill="currentColor" y="9" dy="0.71em">450</text></g><g class="tick" opacity="1" transform="translate(684.6153846153846,0)"><line stroke="currentColor" y2="6"/><text fill="currentColor" y="9" dy="0.71em">500</text></g><g class="tick" opacity="1" transform="translate(753.0769230769231,0)"><line stroke="currentColor" y2="6"/><text fill="currentColor" y="9" dy="0.71em">550</text></g><g class="tick" opacity="1" transform="translate(821.5384615384615,0)"><line stroke="currentColor" y2="6"/><text fill="currentColor" y="9" dy="0.71em">600</text></g><g class="tick" opacity="1" transform="translate(890,0)"><line stroke="currentColor" y2="6"/><text fill="currentColor" y="9" dy="0.71em">650</text></g><text font-family="Arial, sans-serif" font-size="10" x="890" dy="-5" fill="black" font-weight="bold" text-anchor="end">Cantidad de tracks</text></g><g id="yAxis" transform="translate(0,0)" fill="none" font-size="10" font-family="sans-serif" text-anchor="end"><path class="domain" stroke="currentColor" d="M0,0V660"/><g class="tick" opacity="1" transform="translate(0,38.82352941176468)"><line stroke="currentColor" x2="-6"/><text fill="currentColor" x="-9" dy="0.32em">Taylor Swift</text></g><g class="tick" opacity="1" transform="translate(0,97.05882352941175)"><line stroke="currentColor" x2="-6"/><text fill="currentColor" x="-9" dy="0.32em">Jack Antonoff</text></g><g class="tick" opacity="1" transform="translate(0,155.2941176470588)"><line stroke="currentColor" x2="-6"/><text fill="currentColor" x="-9" dy="0.32em">Aaron Dessner</text></g><g class="tick" opacity="1" transform="translate(0,213.52941176470586)"><line stroke="currentColor" x2="-6"/><text fill="currentColor" x="-9" dy="0.32em">Max Martin</text></g><g class="tick" opacity="1" transform="translate(0,271.7647058823529)"><line stroke="currentColor" x2="-6"/><text fill="currentColor" x="-9" dy="0.32em">Shellback</text></g><g class="tick" opacity="1" transform="translate(0,330)"><line stroke="currentColor" x2="-6"/><text fill="currentColor" x="-9" dy="0.32em">Liz Rose</text></g><g class="tick" opacity="1" transform="translate(0,388.2352941176471)"><line stroke="currentColor" x2="-6"/><text fill="currentColor" x="-9" dy="0.32em">William Bowery</text></g><g class="tick" opacity="1" transform="translate(0,446.47058823529414)"><line stroke="currentColor" x2="-6"/><text fill="currentColor" x="-9" dy="0.32em">Joel Little</text></g><g class="tick" opacity="1" transform="translate(0,504.7058823529412)"><line stroke="currentColor" x2="-6"/><text fill="currentColor" x="-9" dy="0.32em">Ryan Tedder</text></g><g class="tick" opacity="1" transform="translate(0,562.9411764705882)"><line stroke="currentColor" x2="-6"/><text fill="currentColor" x="-9" dy="0.32em">Dan Wilson</text></g><g class="tick" opacity="1" transform="translate(0,621.1764705882352)"><line stroke="currentColor" x2="-6"/><text fill="currentColor" x="-9" dy="0.32em">Ed Sheeran</text></g><text font-family="Arial, sans-serif" font-size="10" x="4" fill="black" font-weight="bold" text-anchor="start" dominant-baseline="hanging">Compositor</text></g></g></g></g></svg>